<?xml version="1.0" encoding="UTF-8" standalone="no"?>
<svg
   height="40px"
   viewBox="0 -960 960 960"
   width="40px"
   fill="#5f6368"
   version="1.1"
   id="svg4"
   sodipodi:docname="cdb-restart-and-run-all.svg"
   inkscape:version="1.2.2 (b0a8486541, 2022-12-01)"
   xmlns:inkscape="http://www.inkscape.org/namespaces/inkscape"
   xmlns:sodipodi="http://sodipodi.sourceforge.net/DTD/sodipodi-0.dtd"
   xmlns="http://www.w3.org/2000/svg"
   xmlns:svg="http://www.w3.org/2000/svg">
  <defs
     id="defs8" />
  <sodipodi:namedview
     id="namedview6"
     pagecolor="#ffffff"
     bordercolor="#000000"
     borderopacity="0.25"
     inkscape:showpageshadow="2"
     inkscape:pageopacity="0.0"
     inkscape:pagecheckerboard="0"
     inkscape:deskcolor="#d1d1d1"
     showgrid="false"
     inkscape:zoom="5.9"
     inkscape:cx="19.915254"
     inkscape:cy="20"
     inkscape:window-width="3024"
     inkscape:window-height="1804"
     inkscape:window-x="0"
     inkscape:window-y="54"
     inkscape:window-maximized="1"
     inkscape:current-layer="svg4" />
  <path
     d="M447.33-122Q325-133.67 242.5-224.5 160-315.33 160-439.33q0-73.34 32.33-138.84 32.34-65.5 91-109.16L331-639.67q-50 33.34-77.17 86.67-27.16 53.33-27.16 113.67 0 96 62.66 167.16 62.67 71.17 158 83.5V-122Zm66.67 0v-66.67q95.67-13.33 157.83-84Q734-343.33 734-439.33q0-106-73.67-179.67-73.66-73.67-179.66-73.67h-14.34L521-638l-47.33 47.33L338.33-726l135.34-135.33L521-814l-54.67 54.67h14.34q134 0 227 93.33t93 226.67q0 123.66-82.17 214.5Q636.33-134 514-122Z"
     id="path2" />
  <path
     d="m 402.7834,-269.15515 252,-162 -252,-162 z"
     id="path217"
     style="stroke-width:0.9"
     sodipodi:nodetypes="cccc" />
</svg>
