<?xml version="1.0" encoding="UTF-8" standalone="no"?>
<!-- Generator: Adobe Illustrator 18.1.1, SVG Export Plug-In . SVG Version: 6.00 Build 0)  -->

<svg
   xmlns:dc="http://purl.org/dc/elements/1.1/"
   xmlns:cc="http://creativecommons.org/ns#"
   xmlns:rdf="http://www.w3.org/1999/02/22-rdf-syntax-ns#"
   xmlns:svg="http://www.w3.org/2000/svg"
   xmlns="http://www.w3.org/2000/svg"
   xmlns:sodipodi="http://sodipodi.sourceforge.net/DTD/sodipodi-0.dtd"
   xmlns:inkscape="http://www.inkscape.org/namespaces/inkscape"
   version="1.1"
   id="Capa_1"
   x="0px"
   y="0px"
   viewBox="0 0 35.268 35.268"
   style="enable-background:new 0 0 35.268 35.268;"
   xml:space="preserve"
   inkscape:version="0.91 r13725"
   sodipodi:docname="helping.svg"
   inkscape:export-filename="/home/kasper/tmp/helping.png"
   inkscape:export-xdpi="653.28003"
   inkscape:export-ydpi="653.28003"><metadata
     id="metadata83"><rdf:RDF><cc:Work
         rdf:about=""><dc:format>image/svg+xml</dc:format><dc:type
           rdf:resource="http://purl.org/dc/dcmitype/StillImage" /><dc:title></dc:title></cc:Work></rdf:RDF></metadata><defs
     id="defs81" /><sodipodi:namedview
     pagecolor="#ffffff"
     bordercolor="#666666"
     borderopacity="1"
     objecttolerance="10"
     gridtolerance="10"
     guidetolerance="10"
     inkscape:pageopacity="0"
     inkscape:pageshadow="2"
     inkscape:window-width="1907"
     inkscape:window-height="1367"
     id="namedview79"
     showgrid="false"
     inkscape:zoom="29.366977"
     inkscape:cx="17.746853"
     inkscape:cy="17.182593"
     inkscape:window-x="909"
     inkscape:window-y="409"
     inkscape:window-maximized="0"
     inkscape:current-layer="Capa_1" /><g
     id="g3"
     transform="matrix(0.93241382,0,0,0.93241382,0.81724447,1.0642604)"
     style="stroke:none;stroke-opacity:1;fill:#000000;fill-opacity:1"><circle
       cx="13.193"
       cy="6.7270002"
       r="0.97299999"
       id="circle5"
       style="stroke:none;stroke-opacity:1;fill:#000000;fill-opacity:1" /><path
       d="m 10.27,5.755 c -0.535,0 -0.971,0.434 -0.971,0.973 0,0.537 0.436,0.973 0.971,0.973 0.539,0 0.975,-0.436 0.975,-0.973 C 11.244,6.188 10.809,5.755 10.27,5.755 Z"
       id="path7"
       inkscape:connector-curvature="0"
       style="stroke:none;stroke-opacity:1;fill:#000000;fill-opacity:1" /><path
       d="m 16.178,5.755 c -0.539,0 -0.977,0.434 -0.977,0.973 0,0.537 0.438,0.973 0.977,0.973 0.535,0 0.973,-0.436 0.973,-0.973 C 17.15,6.188 16.713,5.755 16.178,5.755 Z"
       id="path9"
       inkscape:connector-curvature="0"
       style="stroke:none;stroke-opacity:1;fill:#000000;fill-opacity:1" /><rect
       x="18.549"
       y="6.2579999"
       width="13.639"
       height="0.97500002"
       id="rect11"
       style="stroke:none;stroke-opacity:1;fill:#000000;fill-opacity:1" /><path
       d="m 33.324,3.151 -23.375,0 C 8.871,3.151 8,4.022 8,5.096 l 0,13.965 c 0.545,0 1.209,0 1.949,0 l 0,-11.015 23.375,0 0,16.533 -5.834,0 c 0.371,0.801 0.605,1.482 0.605,1.482 -0.141,0.164 -0.289,0.311 -0.436,0.467 l 5.664,0 c 1.072,0 1.945,-0.875 1.945,-1.949 l 0,-19.483 C 35.27,4.022 34.396,3.151 33.324,3.151 Z M 11.408,6.559 c -0.533,0 -0.969,-0.432 -0.969,-0.971 0,-0.543 0.436,-0.973 0.969,-0.973 0.539,0 0.975,0.43 0.975,0.973 0,0.54 -0.436,0.971 -0.975,0.971 z m 2.924,0 c -0.539,0 -0.975,-0.432 -0.975,-0.971 0,-0.543 0.436,-0.973 0.975,-0.973 0.535,0 0.975,0.43 0.975,0.973 0,0.54 -0.44,0.971 -0.975,0.971 z m 2.982,0 c -0.537,0 -0.975,-0.432 -0.975,-0.971 0,-0.543 0.438,-0.973 0.975,-0.973 0.537,0 0.973,0.43 0.973,0.973 0,0.54 -0.435,0.971 -0.973,0.971 z"
       id="path13"
       inkscape:connector-curvature="0"
       style="stroke:none;stroke-opacity:1;fill:#000000;fill-opacity:1" /><path
       d="m 26.352,25.717 c -0.326,-0.701 -0.758,-1.49 -1.244,-2.008 0,0 -0.5,-0.445 -0.752,-0.498 -0.25,-0.057 -0.25,-0.057 -0.379,-0.031 -0.66,0.119 -1.508,1.502 -2.908,2.537 l -7.064,0 c -0.443,-0.398 -0.84,-0.842 -1.156,-1.348 l 3.906,0 c 0,0 1.117,0.074 1.117,-0.818 0,-0.895 0,-2.236 0,-2.236 0,0 0.07,-1.117 -1.117,-1.117 -0.385,0 -2.533,0 -4.848,0 l -0.109,0 -0.788,0 c -0.758,0 -1.504,0 -2.199,0 -0.74,0 -1.404,0 -1.949,0 -0.814,0 -1.354,0 -1.354,0 l 0,9.535 c 0,0 7.598,2.381 10.277,2.381 0,0 6.277,0.266 10.734,-4.447 0.146,-0.156 0.295,-0.299 0.438,-0.469 0,0 -0.232,-0.68 -0.605,-1.481 z"
       id="path15"
       inkscape:connector-curvature="0"
       style="stroke:none;stroke-opacity:1;fill:#000000;fill-opacity:1" /><rect
       x="0"
       y="19.007999"
       width="3.8710001"
       height="13.105"
       id="rect17"
       style="stroke:none;stroke-opacity:1;fill:#000000;fill-opacity:1" /><g
       id="g19"
       style="stroke:none;stroke-opacity:1;fill:#000000;fill-opacity:1" /><g
       id="g21"
       style="stroke:none;stroke-opacity:1;fill:#000000;fill-opacity:1" /><g
       id="g23"
       style="stroke:none;stroke-opacity:1;fill:#000000;fill-opacity:1" /><g
       id="g25"
       style="stroke:none;stroke-opacity:1;fill:#000000;fill-opacity:1" /><g
       id="g27"
       style="stroke:none;stroke-opacity:1;fill:#000000;fill-opacity:1" /><g
       id="g29"
       style="stroke:none;stroke-opacity:1;fill:#000000;fill-opacity:1" /><g
       id="g31"
       style="stroke:none;stroke-opacity:1;fill:#000000;fill-opacity:1" /><g
       id="g33"
       style="stroke:none;stroke-opacity:1;fill:#000000;fill-opacity:1" /><g
       id="g35"
       style="stroke:none;stroke-opacity:1;fill:#000000;fill-opacity:1" /><g
       id="g37"
       style="stroke:none;stroke-opacity:1;fill:#000000;fill-opacity:1" /><g
       id="g39"
       style="stroke:none;stroke-opacity:1;fill:#000000;fill-opacity:1" /><g
       id="g41"
       style="stroke:none;stroke-opacity:1;fill:#000000;fill-opacity:1" /><g
       id="g43"
       style="stroke:none;stroke-opacity:1;fill:#000000;fill-opacity:1" /><g
       id="g45"
       style="stroke:none;stroke-opacity:1;fill:#000000;fill-opacity:1" /><g
       id="g47"
       style="stroke:none;stroke-opacity:1;fill:#000000;fill-opacity:1" /></g><g
     id="g49" /><g
     id="g51" /><g
     id="g53" /><g
     id="g55" /><g
     id="g57" /><g
     id="g59" /><g
     id="g61" /><g
     id="g63" /><g
     id="g65" /><g
     id="g67" /><g
     id="g69" /><g
     id="g71" /><g
     id="g73" /><g
     id="g75" /><g
     id="g77" /></svg>