<?xml version="1.0" encoding="utf-8"?>
<?xml-stylesheet type="text/css" href="icons.css"?>

<!-- License Agreement at http://iconmonstr.com/license/ -->

<!DOCTYPE svg PUBLIC "-//W3C//DTD SVG 1.1//EN" "http://www.w3.org/Graphics/SVG/1.1/DTD/svg11.dtd">
<svg version="1.1" xmlns="http://www.w3.org/2000/svg" xmlns:xlink="http://www.w3.org/1999/xlink" x="0px" y="0px"
	 width="512px" height="512px" viewBox="0 0 512 512" style="enable-background:new 0 0 512 512;" xml:space="preserve">
<path id="puzzle-17" d="M256,273.166v69.539c0,15.055-11.45,19.011-20.754,9.689c-4.56-4.56-8.349-10.561-19.547-10.561
	c-12.439,0-28.365,12.674-28.365,34.332c0,21.66,15.926,34.334,28.365,34.334c11.199,0,14.987-6.002,19.547-10.562
	c9.304-9.321,20.754-5.364,20.754,9.69V462H50V273.166h78.105c16.01,0,23.286-9.873,23.286-19.043c0-7.946-4.292-13.277-9.69-18.458
	c-3.789-3.538-5.868-5.482-5.868-11.383c0-8.08,9.17-19.782,25.75-19.782c16.58,0,25.75,11.702,25.75,19.782
	c0,5.901-2.079,7.846-5.867,11.383c-5.398,5.18-9.69,10.511-9.69,18.458c0,9.17,7.276,19.043,23.286,19.043H256z M293.502,164.308
	c3.537,3.78,5.481,5.859,11.383,5.859c8.08,0,19.781-9.17,19.781-25.75c0-16.58-11.701-25.75-19.781-25.75
	c-5.901,0-7.846,2.079-11.383,5.859c-5.146,5.381-10.512,9.707-18.458,9.707c-9.17,0-19.044-7.292-19.044-23.294V50H50v206h78.105
	c9.153,0,7.577-2.355,1.861-7.795c-4.493-4.208-11.299-10.578-11.299-23.923c0-17.837,17.234-36.948,42.917-36.948
	c25.683,0,42.917,19.111,42.917,36.948c0,13.345-6.807,19.715-11.299,23.923c-5.683,5.415-7.343,7.795,1.861,7.795H256v-78.105
	c0-16.001,9.874-23.294,19.044-23.294C282.99,154.601,288.321,158.918,293.502,164.308z M273.166,50v60.938
	c0,9.145,2.348,7.594,7.796,1.869c4.208-4.501,10.578-11.308,23.923-11.308c17.837,0,36.948,17.242,36.948,42.917
	c0,25.675-19.111,42.917-36.948,42.917c-13.345,0-19.715-6.807-23.923-11.308c-5.448-5.683-7.796-7.309-7.796,1.869V256h52.355
	c15.055,0,19.045,11.441,9.689,20.754c-4.543,4.561-10.545,8.35-10.545,19.547c0,12.439,12.691,28.365,34.334,28.365
	s34.333-15.926,34.333-28.365c0-11.197-6.001-14.986-10.544-19.547c-9.355-9.312-5.365-20.754,9.689-20.754H462V50H273.166z"/>
</svg>
